<svg width="38" height="38" viewBox="0 0 38 38" fill="none" xmlns="http://www.w3.org/2000/svg">
<path d="M36.8125 8.12697C35.4762 8.70762 34.0622 9.09016 32.6154 9.26251C34.1359 8.37217 35.2794 6.9577 35.8313 5.28439C34.3938 6.12498 32.8237 6.71478 31.1882 7.02853C30.4995 6.30677 29.6713 5.7326 28.7538 5.3409C27.8363 4.9492 26.8487 4.74817 25.8511 4.75001C21.8121 4.75001 18.5436 7.97111 18.5436 11.9418C18.5407 12.4941 18.604 13.0448 18.7321 13.582C15.8358 13.4463 12.9998 12.7074 10.4055 11.4128C7.81111 10.1182 5.51556 8.2963 3.66566 6.06368C3.01668 7.15776 2.67346 8.40606 2.67188 9.67814C2.67188 12.1719 3.97293 14.3762 5.9375 15.6676C4.77355 15.64 3.63345 15.3319 2.61398 14.7695V14.8586C2.61398 18.3469 5.13742 21.2488 8.47727 21.9094C7.84921 22.0768 7.20202 22.1616 6.55203 22.1617C6.09082 22.1625 5.63066 22.1178 5.17824 22.0281C6.10672 24.8856 8.80902 26.9637 12.0101 27.0231C9.40899 29.0277 6.21554 30.1111 2.93164 30.1031C2.34874 30.1023 1.76638 30.0676 1.1875 29.9992C4.52822 32.1324 8.41154 33.2608 12.3752 33.25C25.8355 33.25 33.1891 22.2879 33.1891 12.7805C33.1891 12.4688 33.181 12.157 33.1661 11.8527C34.5934 10.8375 35.8282 9.5758 36.8125 8.12697Z" fill="white"/>
</svg>
