<?xml version="1.0" encoding="utf-8"?>
<!-- Generator: Adobe Illustrator 26.3.1, SVG Export Plug-In . SVG Version: 6.00 Build 0)  -->
<svg version="1.1" id="Layer_1" xmlns="http://www.w3.org/2000/svg" xmlns:xlink="http://www.w3.org/1999/xlink" x="0px" y="0px"
	 viewBox="0 0 720 200.78" style="enable-background:new 0 0 720 200.78;" xml:space="preserve">
<g>
	<path d="M77.81,54.16l-43.27,92.44h24.98l7.91-18.55h40.2l7.91,18.55h24.98L97.26,54.16H77.81z M65.77,82.25l7.8,27.36
		l-36.88,34.76L65.77,82.25z M87.93,79.07h-0.92l-12.56,29.96L66.7,81.86l35.12-13.72l-1.49,40.5L87.93,79.07z M99.3,108.77H75.64
		l11.83-28.22L99.3,108.77z M108.29,127.06H66.77l-7.91,18.55H36.84l37.86-35.68l-0.04-0.16h25.65l29.75,18.55l-14.07,16.77
		L108.29,127.06z M138.96,145.61h-22.1l14.18-16.91L138.96,145.61z M130.42,127.37l-29.1-18.15l1.5-40.82L130.42,127.37z
		 M66.4,80.91l12.05-25.74h18.17l5.52,11.79L66.4,80.91z"/>
	<path d="M229.67,57.39l-0.13-0.36l-0.09,0.75l-26.88,48.26l-28.89-51.87h-20.64v13.51l-0.35-0.16l0.35,0.54v78.56h22.53v-47.8
		l19.69,34.06l0.14,0.25h13.55l20.09-34.82v48.31h22.53V54.16h-20.12L229.67,57.39z M154.05,55.16h19.05l15.91,28.58l-34.97-15.62
		V55.16z M154.05,69.57l19.96,30.44l-19.96,44.38V69.57z M174.58,145.61H154.6l19.98-44.42V145.61z M175.51,96.7l-0.93,0.25v2.11
		L155.4,69.82l33.54,14.98l2.11,38.76L175.51,96.7z M208.39,132.12h-12.39l-4.14-7.17l32.2-19.97L208.39,132.12z M192.05,123.65
		l-2.08-38.19l12.6,22.63l26.58-47.72l-5.05,43.39L192.05,123.65z M250.59,145.61h-20.53V96.43l-0.93-0.25l-3.92,6.79l4.83-41.54
		l20.08,56.83l0.47-0.17V145.61z M250.59,55.16v61.43l-20.47-57.95l1.94-3.48H250.59z"/>
	<path d="M264.11,146.61h24.87V54.16h-24.87V146.61z M287.98,145.61H273.7l14.28-47.81V145.61z M265.11,55.16h22.87v39.94
		l-22.44-36.14l-0.42,0.26V55.16z M265.11,60.18l22.32,35.95l-14.74,49.35l0.44,0.13h-8.02V60.18z"/>
	<path d="M326.37,54.16H301.5v92.44h65.59v-20.85h-40.73V54.16z M325.37,55.16V71.3l-22.02-16.14H325.37z M302.5,55.78l22.23,16.3
		l-22.23,44.89V55.78z M302.5,145.61V118.7l39.95,26.91H302.5z M366.09,126.76v18.85h-22.75l0.28-0.41l-40.49-27.26l22.22-44.88
		v53.71H366.09z"/>
	<path d="M469.21,54.18h-29.65l-35.08,38.66V54.18h-24.87v92.44h24.87v-40.73l36.22,40.56l0.15,0.17h29.73L428,98.14L469.21,54.18z
		 M440,55.18h25.63l-42.01,18.05L440,55.18z M466.05,56.09l-38.66,41.24l-4.01-22.91L466.05,56.09z M422.4,74.58l3.98,22.74
		l-44.73,2.52l21.84-29.81v24.32h0.98L422.4,74.58z M380.62,55.18h22.87v13.48l-22.71-7.19l-0.15,0.48V55.18z M380.62,62.47
		l22.05,6.98l-22.05,30.1V62.47z M380.62,145.62v-44.11l22.31,44.11H380.62z M441.3,145.62l-35.58-39.84l61.74,39.84H441.3z
		 M467.17,144.25l-62.44-40.29l-0.27,0.42l0,0h-0.98v40.14l-22.07-43.66l45.4-2.56L467.17,144.25z"/>
	<path d="M526.38,54.16l-43.27,92.44h24.98l7.91-18.55h40.2l7.91,18.55h24.98l-43.27-92.44H526.38z M527.02,55.16L527.02,55.16
		L527.02,55.16L527.02,55.16z M526.54,56.19l0.79,41.12l-31.93,25.4L526.54,56.19z M484.68,145.61l9.98-21.32l12.19,21.32H484.68z
		 M507.43,145.61L507.43,145.61L507.43,145.61L507.43,145.61z M515.35,127.06l-7.67,17.97l-12.11-21.17l31.86-25.35l-4.72,11.26
		h26.67l-12.25-29.22l34.87,33.77l-56.75,12.26L515.35,127.06z M536.04,80.55l11.83,28.22h-23.66L536.04,80.55z M587.53,145.61
		h-22.75l-7.91-18.55h-39.15l55.52-11.99L587.53,145.61z M536.98,79.01l-0.35,0.36l-0.13-0.31h-0.93l-7.27,17.34l-0.79-41.24h17.67
		l27.23,58.17L536.98,79.01z"/>
	<path d="M670.78,119.93c-2.68-4.88-6.18-8.15-10.43-9.73c5.82-1.91,10.38-5.06,13.57-9.38c3.46-4.69,5.22-10.57,5.22-17.48
		c0-9.1-2.92-16.31-8.66-21.45c-2.03-1.81-4.37-3.3-7.01-4.47l0.01-0.07l-0.08,0.04c-4.81-2.13-10.59-3.21-17.32-3.21h-44.47v92.44
		h24.87v-34.11h6.63c1.99,0,3.77,0.38,5.29,1.12c1.5,0.73,2.76,1.97,3.74,3.68l15.82,29.05l0.14,0.26h27.34L670.78,119.93z
		 M669.82,62.62c5.53,4.94,8.33,11.9,8.33,20.7c0,6.69-1.69,12.37-5.03,16.89c-3.24,4.39-7.99,7.52-14.09,9.32l4.36-51.08
		C665.8,59.57,667.95,60.96,669.82,62.62z M646.09,55.16c6.27,0,11.7,0.95,16.24,2.83l-24.19,14.02l0.25,0.43h-12.91v5.12
		l-22.16-22.41H646.09z M641.81,73.45c9.18,0,13.64,3.44,13.64,10.53c0,7.17-4.46,10.65-13.64,10.65h-15.32V73.45H641.81z
		 M602.62,55.16L602.62,55.16L602.62,55.16L602.62,55.16z M602.62,55.87l22.22,22.46l-22.22,31.97V55.87z M625.49,79.16v16.47
		l-0.28-0.42l-20.24,13.46L625.49,79.16z M602.62,145.61v-33.52l22.27,33.52H602.62z M643.02,116.8c-1.08-1.9-2.49-3.27-4.17-4.09
		c-1.66-0.81-3.59-1.22-5.73-1.22h-7.63v33.21l-22.26-33.51l0.2-0.28l22.34-14.86l-0.28-0.42h16.32c9.71,0,14.64-3.92,14.64-11.65
		c0-7.65-4.92-11.53-14.64-11.53h-2.42l22.94-13.29l-4.28,50.42l-8.34,19.5L643.02,116.8z M650.01,129.63l0.46,0.2l8.18-19.13
		c4.63,1.28,8.42,4.54,11.25,9.71l13.86,25.2h-25.06L650.01,129.63z"/>
</g>
</svg>
