<svg width="39" height="39" viewBox="0 0 39 39" fill="none" xmlns="http://www.w3.org/2000/svg">
<path d="M19.5 0C8.73147 0 0 8.95781 0 19.9962C0 28.8321 5.58884 36.3187 13.3366 38.9652C13.4453 38.9888 13.5562 39.0004 13.6674 39C14.3899 39 14.6685 38.469 14.6685 38.0076C14.6685 37.5288 14.6511 36.2752 14.6424 34.6038C13.9974 34.755 13.3375 34.8338 12.675 34.8388C8.92299 34.8388 8.06986 31.9225 8.06986 31.9225C7.18192 29.6156 5.90223 28.9975 5.90223 28.9975C4.20469 27.8049 5.89352 27.7701 6.0241 27.7701H6.03281C7.99151 27.9442 9.01875 29.842 9.01875 29.842C9.99375 31.5482 11.2995 32.027 12.4661 32.027C13.2374 32.0116 13.9968 31.8336 14.6946 31.5047C14.8687 30.2163 15.3737 29.337 15.9308 28.8321C11.6042 28.3272 7.05134 26.6123 7.05134 18.9516C7.05134 16.7665 7.8087 14.9819 9.05357 13.5891C8.85334 13.0841 8.18303 11.0471 9.24509 8.2962C9.38754 8.26211 9.53396 8.24747 9.68035 8.25268C10.3855 8.25268 11.9786 8.52254 14.6076 10.3507C17.802 9.4569 21.1805 9.4569 24.375 10.3507C27.004 8.52254 28.5971 8.25268 29.3022 8.25268C29.4486 8.24747 29.595 8.26211 29.7375 8.2962C30.7995 11.0471 30.1292 13.0841 29.929 13.5891C31.1739 14.9906 31.9312 16.7752 31.9312 18.9516C31.9312 26.6297 27.3696 28.3185 23.0257 28.8147C23.7221 29.4328 24.3489 30.6516 24.3489 32.5145C24.3489 35.187 24.3228 37.346 24.3228 37.9989C24.3228 38.469 24.5926 39 25.3152 39C25.4321 39.0005 25.5488 38.9888 25.6634 38.9652C33.4199 36.3187 39 28.8234 39 19.9962C39 8.95781 30.2685 0 19.5 0Z" fill="white"/>
</svg>
