<svg width="38" height="39" viewBox="0 0 38 39" fill="none" xmlns="http://www.w3.org/2000/svg">
<path d="M25.5387 17.7938C23.3938 17.7938 23.0969 19.9875 23.0969 19.9875H27.6539C27.6539 19.9875 27.6836 17.7938 25.5387 17.7938ZM15.2 19.9875H11.1625V23.7961H14.9996C15.5785 23.7809 16.6621 23.6133 16.6621 21.9451C16.6621 19.9647 15.2 19.9875 15.2 19.9875Z" fill="white"/>
<path d="M19 2.4375C9.81914 2.4375 2.375 10.0775 2.375 19.5C2.375 28.9225 9.81914 36.5625 19 36.5625C28.1809 36.5625 35.625 28.9225 35.625 19.5C35.625 10.0775 28.1809 2.4375 19 2.4375ZM22.5031 12.9188H28.2254V14.6707H22.5031V12.9188ZM19.6086 22.1203C19.6086 26.4621 15.2 26.325 15.2 26.325H7.98594V12.0809H15.2C17.3969 12.0809 19.1262 13.3225 19.1262 15.8742C19.1262 18.426 17.0109 18.5859 17.0109 18.5859C19.8016 18.5859 19.6086 22.1203 19.6086 22.1203ZM30.3109 21.8842H23.1191C23.1191 24.5273 25.5609 24.3598 25.5609 24.3598C27.8691 24.3598 27.7875 22.8287 27.7875 22.8287H30.2293C30.2293 26.8963 25.4793 26.6145 25.4793 26.6145C19.7867 26.6145 20.1504 21.1682 20.1504 21.1682C20.1504 21.1682 20.143 15.699 25.4793 15.699C31.0977 15.7066 30.3109 21.8842 30.3109 21.8842Z" fill="white"/>
<path d="M16.1797 16.0951C16.1797 14.6174 15.2 14.6174 15.2 14.6174H11.1625V17.7937H14.9477C15.6008 17.7937 16.1797 17.5728 16.1797 16.0951Z" fill="white"/>
</svg>
