<svg width="38" height="39" viewBox="0 0 38 39" fill="none" xmlns="http://www.w3.org/2000/svg">
<g clip-path="url(#clip0_2_28)">
<path d="M37.7506 11.3336C37.7506 7.90588 35.294 5.14846 32.2584 5.14846C28.1467 4.95117 23.9533 4.875 19.6679 4.875H18.332C14.057 4.875 9.85623 4.95117 5.74451 5.14922C2.71638 5.14922 0.259742 7.92187 0.259742 11.3496C0.0741952 14.0606 -0.00447672 16.7723 -2.35997e-05 19.484C-0.00744547 22.1957 0.0766691 24.91 0.25232 27.6268C0.25232 31.0545 2.70896 33.8348 5.73709 33.8348C10.0566 34.0404 14.4875 34.1319 18.9926 34.1242C23.5051 34.1395 27.9235 34.043 32.248 33.8348C35.2836 33.8348 37.7402 31.0545 37.7402 27.6268C37.9183 24.9074 38 22.1957 37.9926 19.4764C38.0094 16.7647 37.9287 14.0504 37.7506 11.3336ZM15.3633 26.9565V11.9887L26.125 19.4688L15.3633 26.9565Z" fill="white"/>
</g>
<defs>
<clipPath id="clip0_2_28">
<rect width="38" height="39" fill="white"/>
</clipPath>
</defs>
</svg>
